<?xml version="1.0" encoding="UTF-8"?>
<svg version="1.1" xmlns="http://www.w3.org/2000/svg" width="500" height="500">
<path d="M0 0 C0.80119263 0.00054382 1.60238525 0.00108765 2.42785645 0.00164795 C14.22426604 0.03852833 25.17272206 0.58871764 36.4375 4.375 C37.43088379 4.69645996 37.43088379 4.69645996 38.44433594 5.02441406 C52.1877649 9.52691082 65.75056912 15.80458402 77.4375 24.375 C77.4375 23.715 77.4375 23.055 77.4375 22.375 C78.0975 22.375 78.7575 22.375 79.4375 22.375 C79.7778125 21.48361328 79.7778125 21.48361328 80.125 20.57421875 C81.80604564 17.75746668 83.59735286 16.79333901 86.4375 15.1875 C87.7678125 14.42373047 87.7678125 14.42373047 89.125 13.64453125 C95.5485915 10.11806632 103.24455814 10.48495205 110.4375 11.375 C117.8995723 13.65349536 124.38623607 17.57058839 128.4375 24.375 C132.28403216 32.5107208 133.99006571 40.60599185 131 49.25 C128.39187918 55.32306111 123.47482519 62.3563374 117.4375 65.375 C118.113183 69.67332079 119.57376047 73.3689997 121.25 77.375 C127.61661238 92.9437748 130.83637977 107.45546153 130.8125 124.3125 C130.81162384 124.99308472 130.81074768 125.67366943 130.80984497 126.37487793 C130.67924729 157.25015914 119.82389248 188.48577994 98.4375 211.375 C97.7775 211.375 97.1175 211.375 96.4375 211.375 C96.2003125 211.93703125 95.963125 212.4990625 95.71875 213.078125 C94.14802303 215.89394042 92.22278536 217.85455416 89.9375 220.125 C88.74640625 221.32382812 88.74640625 221.32382812 87.53125 222.546875 C85.4375 224.375 85.4375 224.375 83.4375 224.375 C83.4375 225.035 83.4375 225.695 83.4375 226.375 C59.56911423 245.48556801 31.70559841 255.54688975 1.25 255.5625 C0.01185547 255.57474609 -1.22628906 255.58699219 -2.50195312 255.59960938 C-10.71029218 255.61250881 -18.4982291 254.89451547 -26.5625 253.375 C-27.66380249 253.17185181 -27.66380249 253.17185181 -28.78735352 252.96459961 C-45.62664099 249.62942723 -60.58919472 242.16717377 -74.5625 232.375 C-75.43390625 231.77042969 -76.3053125 231.16585937 -77.203125 230.54296875 C-81.17585415 227.68843784 -81.17585415 227.68843784 -82.5625 226.375 C-82.5625 225.715 -82.5625 225.055 -82.5625 224.375 C-83.11421875 224.14683594 -83.6659375 223.91867187 -84.234375 223.68359375 C-93.09256167 218.70457943 -100.07729905 208.65923353 -105.5625 200.375 C-106.23023438 199.36695313 -106.89796875 198.35890625 -107.5859375 197.3203125 C-126.39819283 167.84057138 -131.91416658 133.98357729 -125.07177734 99.67236328 C-123.68422605 93.41308347 -121.74098108 87.39863142 -119.5625 81.375 C-119.21703125 80.37726563 -118.8715625 79.37953125 -118.515625 78.3515625 C-113.9479997 66.27052457 -106.29766854 52.97637223 -97.5625 43.375 C-96.9025 43.375 -96.2425 43.375 -95.5625 43.375 C-95.17578125 42.50101563 -95.17578125 42.50101563 -94.78125 41.609375 C-93.46415983 39.1947097 -92.01161616 37.55759823 -90.0625 35.625 C-89.14984375 34.70460938 -89.14984375 34.70460938 -88.21875 33.765625 C-86.5625 32.375 -86.5625 32.375 -84.5625 32.375 C-84.5625 31.715 -84.5625 31.055 -84.5625 30.375 C-59.9227276 10.79912565 -31.41237867 -0.07993177 0 0 Z " fill="#1E1F1F" transform="translate(250.5625,122.625)"/>
<path d="M0 0 C0.80119263 0.00054382 1.60238525 0.00108765 2.42785645 0.00164795 C14.22426604 0.03852833 25.17272206 0.58871764 36.4375 4.375 C37.43088379 4.69645996 37.43088379 4.69645996 38.44433594 5.02441406 C52.1877649 9.52691082 65.75056912 15.80458402 77.4375 24.375 C77.4375 23.715 77.4375 23.055 77.4375 22.375 C78.0975 22.375 78.7575 22.375 79.4375 22.375 C79.7778125 21.48361328 79.7778125 21.48361328 80.125 20.57421875 C81.80604564 17.75746668 83.59735286 16.79333901 86.4375 15.1875 C87.7678125 14.42373047 87.7678125 14.42373047 89.125 13.64453125 C95.5485915 10.11806632 103.24455814 10.48495205 110.4375 11.375 C117.8995723 13.65349536 124.38623607 17.57058839 128.4375 24.375 C132.28403216 32.5107208 133.99006571 40.60599185 131 49.25 C128.39187918 55.32306111 123.47482519 62.3563374 117.4375 65.375 C118.113183 69.67332079 119.57376047 73.3689997 121.25 77.375 C127.61661238 92.9437748 130.83637977 107.45546153 130.8125 124.3125 C130.81162384 124.99308472 130.81074768 125.67366943 130.80984497 126.37487793 C130.67924729 157.25015914 119.82389248 188.48577994 98.4375 211.375 C97.7775 211.375 97.1175 211.375 96.4375 211.375 C96.2003125 211.93703125 95.963125 212.4990625 95.71875 213.078125 C94.14802303 215.89394042 92.22278536 217.85455416 89.9375 220.125 C88.74640625 221.32382812 88.74640625 221.32382812 87.53125 222.546875 C85.4375 224.375 85.4375 224.375 83.4375 224.375 C83.4375 225.035 83.4375 225.695 83.4375 226.375 C59.56911423 245.48556801 31.70559841 255.54688975 1.25 255.5625 C0.01185547 255.57474609 -1.22628906 255.58699219 -2.50195312 255.59960938 C-10.71029218 255.61250881 -18.4982291 254.89451547 -26.5625 253.375 C-27.66380249 253.17185181 -27.66380249 253.17185181 -28.78735352 252.96459961 C-45.62664099 249.62942723 -60.58919472 242.16717377 -74.5625 232.375 C-75.43390625 231.77042969 -76.3053125 231.16585937 -77.203125 230.54296875 C-81.17585415 227.68843784 -81.17585415 227.68843784 -82.5625 226.375 C-82.5625 225.715 -82.5625 225.055 -82.5625 224.375 C-83.11421875 224.14683594 -83.6659375 223.91867187 -84.234375 223.68359375 C-93.09256167 218.70457943 -100.07729905 208.65923353 -105.5625 200.375 C-106.23023438 199.36695313 -106.89796875 198.35890625 -107.5859375 197.3203125 C-126.39819283 167.84057138 -131.91416658 133.98357729 -125.07177734 99.67236328 C-123.68422605 93.41308347 -121.74098108 87.39863142 -119.5625 81.375 C-119.21703125 80.37726563 -118.8715625 79.37953125 -118.515625 78.3515625 C-113.9479997 66.27052457 -106.29766854 52.97637223 -97.5625 43.375 C-96.9025 43.375 -96.2425 43.375 -95.5625 43.375 C-95.17578125 42.50101563 -95.17578125 42.50101563 -94.78125 41.609375 C-93.46415983 39.1947097 -92.01161616 37.55759823 -90.0625 35.625 C-89.14984375 34.70460938 -89.14984375 34.70460938 -88.21875 33.765625 C-86.5625 32.375 -86.5625 32.375 -84.5625 32.375 C-84.5625 31.715 -84.5625 31.055 -84.5625 30.375 C-59.9227276 10.79912565 -31.41237867 -0.07993177 0 0 Z M-32.5625 18.375 C-33.40022949 18.62652832 -34.23795898 18.87805664 -35.10107422 19.13720703 C-44.86149002 22.25233147 -53.02612169 26.80096261 -61.5625 32.375 C-62.78481104 33.03371626 -64.01271965 33.68235024 -65.25 34.3125 C-70.24159711 37.42047556 -74.29840308 41.34915491 -78.5625 45.375 C-79.50351563 46.19355469 -80.44453125 47.01210937 -81.4140625 47.85546875 C-99.70711513 64.25508862 -111.51960318 91.03110773 -113.5625 115.375 C-115.0053085 147.59121149 -108.06384882 178.34720845 -85.94946289 202.98510742 C-65.77642892 224.48195727 -38.25829204 240.05306149 -8.27099609 241.484375 C16.71019068 242.27195921 38.91937736 237.14621711 60.4375 224.375 C61.29472656 223.88386719 62.15195312 223.39273438 63.03515625 222.88671875 C69.58789705 218.85517767 75.13923469 213.43193405 80.64892578 208.10351562 C81.95218515 206.84401845 83.2703844 205.59992603 84.59716797 204.36523438 C90.28668515 198.93285005 94.5442395 193.24776403 98.5625 186.5 C99.16433105 185.49477295 99.76616211 184.4895459 100.38623047 183.45385742 C105.64002202 174.43952464 109.63814795 165.4215868 112.4375 155.375 C112.65615723 154.59125 112.87481445 153.8075 113.10009766 153 C118.82939937 131.39785856 119.03363895 106.25890225 110.4375 85.375 C110.1583374 84.68841309 109.8791748 84.00182617 109.59155273 83.29443359 C106.2358577 74.56546308 106.2358577 74.56546308 100.1953125 67.81640625 C97.94016707 67.12581673 95.76580126 66.73445704 93.4375 66.375 C86.48278581 63.78960439 80.601345 59.62853955 77.18359375 52.91015625 C75.73350804 49.35182784 74.55714492 45.85357966 73.625 42.125 C68.49529871 30.24569175 49.63376216 24.9693082 38.4375 20.375 C29.48736192 16.83223701 21.04471356 14.07008514 11.34375 14.0390625 C10.59395874 14.0324057 9.84416748 14.0257489 9.07165527 14.01889038 C7.49180525 14.00882934 5.91191328 14.00407131 4.33203125 14.00439453 C1.97059789 14.00006074 -0.38890098 13.96378389 -2.75 13.92578125 C-13.25980547 13.84766853 -22.52237311 15.30499684 -32.5625 18.375 Z " fill="#D1D1D1" transform="translate(250.5625,122.625)"/>
<path d="M0 0 C1.765625 1.11328125 1.765625 1.11328125 3.5 2.4375 C4.19609375 2.94667969 4.8921875 3.45585937 5.609375 3.98046875 C11.40304407 8.60060266 14.18703071 13.49859214 16.5 20.4375 C16.60913424 22.48500317 16.65894669 24.53585154 16.67700195 26.58618164 C16.69625481 28.48944969 16.69625481 28.48944969 16.71589661 30.4311676 C16.724068 31.81999316 16.73151096 33.20882316 16.73828125 34.59765625 C16.74235678 35.29954008 16.7464323 36.00142391 16.75063133 36.72457695 C16.77148588 40.44488097 16.78578613 44.16514825 16.79516602 47.88549805 C16.80618569 51.70619093 16.84053472 55.52629419 16.88033772 59.34677982 C16.90664662 62.30243417 16.91487073 65.25795159 16.91844749 68.21371269 C16.92328246 69.62056871 16.93480703 71.02741991 16.95348549 72.43416023 C17.09805388 84.05096057 15.54828079 93.0934289 7.4375 101.74609375 C0.84748319 107.49907213 -6.54590582 108.87381393 -15.078125 108.76953125 C-23.77193429 107.92595386 -29.4561119 103.28789443 -34.875 96.7109375 C-39.32792376 90.48112589 -40.59899643 84.02561658 -40.69287109 76.46069336 C-40.70893402 75.27853745 -40.72499695 74.09638153 -40.74154663 72.87840271 C-40.78632219 67.47142241 -40.82750017 62.06458359 -40.85009766 56.6574707 C-40.86338773 53.8146919 -40.89115635 50.97263931 -40.93212891 48.13012695 C-40.98191132 44.67479346 -41.00627352 41.22011335 -41.01332474 37.76443672 C-41.02315657 35.83254523 -41.0572882 33.90082527 -41.09213257 31.96922302 C-41.07073391 22.92768568 -39.7119123 14.20453637 -33.52548218 7.20274353 C-31.61248146 5.42587228 -29.63885842 3.93137193 -27.5 2.4375 C-26.51 1.633125 -25.52 0.82875 -24.5 0 C-18.05717849 -3.43716344 -6.51885414 -2.99374813 0 0 Z " fill="#39C4B7" transform="translate(263.5,170.5625)"/>
<path d="M0 0 C1.66430664 1.17651367 1.66430664 1.17651367 3 3 C3.36889648 5.50512695 3.36889648 5.50512695 3.37109375 8.48828125 C3.385354 9.58084229 3.39961426 10.67340332 3.41430664 11.79907227 C3.42578735 13.53821899 3.42578735 13.53821899 3.4375 15.3125 C3.88541648 34.39886475 3.88541648 34.39886475 13.86328125 50.16796875 C22.42363546 57.50765088 31.34140708 60.69601048 42.6484375 60.41796875 C51.05042516 59.37016842 57.85710318 55.65793128 64 50 C64.66 50 65.32 50 66 50 C67.53404744 46.95321133 69.04064519 43.89583196 70.5 40.8125 C70.9228125 39.93207031 71.345625 39.05164063 71.78125 38.14453125 C75.31574533 29.02508017 75.37141996 19.94233882 75.56640625 10.26757812 C75.59605469 9.23181641 75.62570312 8.19605469 75.65625 7.12890625 C75.67494141 6.19119385 75.69363281 5.25348145 75.71289062 4.28735352 C76 2 76 2 78 0 C82.05261287 -0.34490322 83.54754176 -0.30163882 87 2 C87.6159237 6.04647548 87.51466 10.10982672 87.50097656 14.19921875 C87.50002347 16.20072098 87.54243685 18.20209532 87.5859375 20.203125 C87.61678686 35.75120472 82.56926425 47.96669617 71.8359375 59.28125 C63.90749857 66.78945365 55.70044213 70.31850195 45 72 C45 77.28 45 82.56 45 88 C46.16917969 87.95359375 47.33835937 87.9071875 48.54296875 87.859375 C50.0911202 87.82184406 51.63929939 87.78544531 53.1875 87.75 C53.95642578 87.71648437 54.72535156 87.68296875 55.51757812 87.6484375 C59.64610431 87.57756151 61.50155164 87.67067944 65.05078125 90.015625 C65.69402344 90.67046875 66.33726562 91.3253125 67 92 C66.50995726 97.51298088 66.50995726 97.51298088 64.24719238 99.67396545 C61.68443193 101.18621199 60.24837246 101.38444905 57.29492188 101.40405273 C56.36715942 101.41673691 55.43939697 101.42942108 54.48352051 101.44248962 C53.48864624 101.43955399 52.49377197 101.43661835 51.46875 101.43359375 C50.44068237 101.4388356 49.41261475 101.44407745 48.35339355 101.44947815 C46.18140567 101.45589702 44.00938301 101.45456312 41.83740234 101.44604492 C38.51206705 101.4375309 35.18844701 101.46630599 31.86328125 101.49804688 C29.75260468 101.49965886 27.64192507 101.49908141 25.53125 101.49609375 C24.53637573 101.50732773 23.54150146 101.51856171 22.51647949 101.53013611 C15.64548927 101.46066097 15.64548927 101.46066097 12.37304688 99.12524414 C10.63470563 96.43458616 10.37124003 95.14379986 11 92 C12.421875 89.859375 12.421875 89.859375 15 88 C18.26262128 87.50456492 21.45969326 87.62363667 24.75 87.75 C25.63816406 87.76804687 26.52632812 87.78609375 27.44140625 87.8046875 C29.62806775 87.85171248 31.81417281 87.92345352 34 88 C34 82.72 34 77.44 34 72 C32.7625 71.95875 31.525 71.9175 30.25 71.875 C18.81628149 70.56263923 9.25939487 63.29002377 2.06640625 54.6875 C-6.44135504 43.27063324 -9.19978893 32.35816711 -9.24023438 18.41796875 C-9.25000193 16.37459534 -9.28108218 14.33220282 -9.3125 12.2890625 C-9.31765625 11.00515625 -9.3228125 9.72125 -9.328125 8.3984375 C-9.3374707 7.21942871 -9.34681641 6.04041992 -9.35644531 4.82568359 C-9.23881836 3.89320801 -9.12119141 2.96073242 -9 2 C-5.53076119 -0.31282587 -4.07794425 -0.42478586 0 0 Z " fill="#D4D4D5" transform="translate(212,231)"/>
<path d="M0 0 C7.74132918 3.66130789 13.07240372 8.06451862 16.23046875 16.09375 C18.84938723 24.50185668 19.48006269 31.09796273 15.8671875 39.3125 C10.94041183 48.13023328 4.92627532 52.95054286 -4.58203125 55.90625 C-5.96452597 56.47159159 -7.34067068 57.05295773 -8.70703125 57.65625 C-9.65578125 58.06875 -10.60453125 58.48125 -11.58203125 58.90625 C-11.91203125 58.24625 -12.24203125 57.58625 -12.58203125 56.90625 C-14.498267 56.43559561 -16.41520141 55.9675629 -18.3359375 55.515625 C-26.75398167 53.23177302 -33.52125031 48.09066266 -37.97265625 40.55078125 C-42.43710682 30.66296644 -41.09196011 22.0774792 -37.45703125 12.14453125 C-37.16828125 11.40589844 -36.87953125 10.66726562 -36.58203125 9.90625 C-35.92203125 9.90625 -35.26203125 9.90625 -34.58203125 9.90625 C-34.35515625 9.31199219 -34.12828125 8.71773437 -33.89453125 8.10546875 C-32.21348561 5.28871668 -30.42217839 4.32458901 -27.58203125 2.71875 C-26.69515625 2.20957031 -25.80828125 1.70039063 -24.89453125 1.17578125 C-17.68562301 -2.78181196 -7.79355635 -2.37971186 0 0 Z " fill="#3BCDBE" transform="translate(364.58203125,135.09375)"/>
<path d="M0 0 C0.66 0.33 1.32 0.66 2 1 C2.35153689 2.66292234 2.68019896 4.33068392 3 6 C3.89991473 8.34808521 4.841847 10.6802622 5.8125 13 C12.17911238 28.5687748 15.39887977 43.08046153 15.375 59.9375 C15.37412384 60.61808472 15.37324768 61.29866943 15.37234497 61.99987793 C15.24174729 92.87515914 4.38639248 124.11077994 -17 147 C-17.66 147 -18.32 147 -19 147 C-19.2371875 147.56203125 -19.474375 148.1240625 -19.71875 148.703125 C-21.28947697 151.51894042 -23.21471464 153.47955416 -25.5 155.75 C-26.69109375 156.94882812 -26.69109375 156.94882812 -27.90625 158.171875 C-30 160 -30 160 -32 160 C-32 160.66 -32 161.32 -32 162 C-36.34451693 165.23312888 -40.40972991 167.5290418 -45.75 168.5 C-46.4925 168.665 -47.235 168.83 -48 169 C-48.495 169.99 -48.495 169.99 -49 171 C-49.33 169.02 -49.66 167.04 -50 165 C-49.34 165 -48.68 165 -48 165 C-48 163.02 -48 161.04 -48 159 C-48.66 158.67 -49.32 158.34 -50 158 C-50.33 159.98 -50.66 161.96 -51 164 C-52.65 164 -54.3 164 -56 164 C-55.47897515 159.41038405 -55.47897515 159.41038405 -53.390625 157.62109375 C-52.68421875 157.23050781 -51.9778125 156.83992187 -51.25 156.4375 C-46.86229514 153.72929939 -43.18961893 150.63015371 -39.4375 147.125 C-38.92026367 146.64345459 -38.40302734 146.16190918 -37.87011719 145.66577148 C-36.80879612 144.66634421 -35.75439775 143.65952496 -34.70629883 142.64624023 C-33.50613597 141.48832091 -32.29094302 140.34587816 -31.06518555 139.21508789 C-25.66792128 134.09487322 -21.75196624 128.55513711 -17.9375 122.1875 C-17.33115723 121.17776123 -16.72481445 120.16802246 -16.10009766 119.12768555 C-10.81898095 110.09494424 -6.80726374 101.07498104 -4 91 C-3.78134277 90.21625 -3.56268555 89.4325 -3.33740234 88.625 C3.69553111 62.1075585 1.14844061 35.30623771 -10.890625 10.85546875 C-12 8 -12 8 -11 5 C-9.00390625 3.8671875 -9.00390625 3.8671875 -6.5625 2.875 C-5.75941406 2.54242188 -4.95632813 2.20984375 -4.12890625 1.8671875 C-3.07509766 1.43792969 -3.07509766 1.43792969 -2 1 C-1.34 0.67 -0.68 0.34 0 0 Z " fill="#EEEEEE" transform="translate(366,187)"/>
<path d="M0 0 C3.0625 0.25 3.0625 0.25 6.0625 2.25 C6.6784237 6.29647548 6.57716 10.35982672 6.56347656 14.44921875 C6.56252347 16.45072098 6.60493685 18.45209532 6.6484375 20.453125 C6.6791709 35.94276057 1.68143216 48.30785789 -9.125 59.51953125 C-12.90435347 63.0418331 -12.90435347 63.0418331 -14.9375 64.25 C-15.9275 63.92 -16.9175 63.59 -17.9375 63.25 C-18.2675 62.59 -18.5975 61.93 -18.9375 61.25 C-20.58113134 60.52840576 -22.24800386 59.85648579 -23.9375 59.25 C-23.76451599 56.91471585 -23.23524631 55.55822418 -21.60546875 53.87109375 C-17.36538462 50.25 -17.36538462 50.25 -14.9375 50.25 C-13.40345256 47.20321133 -11.89685481 44.14583196 -10.4375 41.0625 C-9.80328125 39.74185547 -9.80328125 39.74185547 -9.15625 38.39453125 C-5.62175467 29.27508017 -5.56608004 20.19233882 -5.37109375 10.51757812 C-5.34144531 9.48181641 -5.31179688 8.44605469 -5.28125 7.37890625 C-5.26255859 6.44119385 -5.24386719 5.50348145 -5.22460938 4.53735352 C-4.76509743 0.87649688 -3.57882817 0.30458112 0 0 Z " fill="#F5F5F5" transform="translate(292.9375,230.75)"/>
<path d="M0 0 C0.66 0.33 1.32 0.66 2 1 C1.47184717 4.27454757 0.68912953 7.49038054 -0.1875 10.6875 C-0.38730469 11.45449219 -0.58710938 12.22148437 -0.79296875 13.01171875 C-2 15 -2 15 -4.72265625 16.24609375 C-14.1463766 18.41388639 -22.42110112 17.33786309 -31 13 C-31 10.69 -31 8.38 -31 6 C-29.68 5.34 -28.36 4.68 -27 4 C-27 3.34 -27 2.68 -27 2 C-26.14148438 2.15984375 -25.28296875 2.3196875 -24.3984375 2.484375 C-15.63062608 3.81466363 -8.12832075 3.52738448 0 0 Z " fill="#161717" transform="translate(266,275)"/>
<path d="M0 0 C0 0.66 0 1.32 0 2 C-0.78375 2.45375 -1.5675 2.9075 -2.375 3.375 C-5.18147668 5.1123427 -5.73122102 6.0720485 -7 9 C-7.99 9.495 -7.99 9.495 -9 10 C-9.33 11.155 -9.66 12.31 -10 13.5 C-10.33 14.655 -10.66 15.81 -11 17 C-11.66 17.33 -12.32 17.66 -13 18 C-15.83294449 21.83608434 -16.37795479 24.59612604 -16.38818359 29.3190918 C-16.39764008 30.57356613 -16.40709656 31.82804047 -16.4168396 33.12052917 C-16.41147132 34.48009561 -16.40531873 35.83965913 -16.3984375 37.19921875 C-16.40045948 38.59975842 -16.40337196 40.00029706 -16.40713501 41.40083313 C-16.4115482 44.32860388 -16.40515715 47.25609924 -16.39111328 50.18383789 C-16.37397399 53.9401993 -16.38389817 57.69591989 -16.40183067 61.45225811 C-16.41265547 64.34071207 -16.40922911 67.22901322 -16.4014473 70.11747169 C-16.39944411 71.50298959 -16.40190874 72.88852129 -16.40888596 74.27402306 C-16.41648327 76.20571002 -16.40285533 78.13744561 -16.38818359 80.0690918 C-16.38579681 81.16875778 -16.38341003 82.26842377 -16.38095093 83.40141296 C-16.25523712 84.25894669 -16.12952332 85.11648041 -16 86 C-15.01 86.66 -14.02 87.32 -13 88 C-12.71125 88.969375 -12.4225 89.93875 -12.125 90.9375 C-11.24803055 94.1617234 -11.24803055 94.1617234 -8.5 95.9375 C-7.675 96.288125 -6.85 96.63875 -6 97 C-5.01 96.505 -5.01 96.505 -4 96 C-3.67 97.32 -3.34 98.64 -3 100 C-3.99 100.495 -3.99 100.495 -5 101 C-4.01 101.33 -3.02 101.66 -2 102 C-2 102.66 -2 103.32 -2 104 C-0.35 104 1.3 104 3 104 C3 104.66 3 105.32 3 106 C6.63 106.33 10.26 106.66 14 107 C14.495 105.515 14.495 105.515 15 104 C17.97851562 104.04882812 17.97851562 104.04882812 20.95703125 104.09765625 C23.20305461 104.08263217 23.20305461 104.08263217 26 103 C26 102.34 26 101.68 26 101 C26.99 101.33 27.98 101.66 29 102 C20.66095046 108.33767765 13.53328872 110.16622985 3 109 C-5.47373319 106.55176853 -11.77562356 100.62026726 -16.125 93.0390625 C-18.50065613 87.80805043 -19.1223372 82.70719253 -19.19287109 77.02319336 C-19.20893402 75.84103745 -19.22499695 74.65888153 -19.24154663 73.44090271 C-19.28632219 68.03392241 -19.32750017 62.62708359 -19.35009766 57.2199707 C-19.36338773 54.3771919 -19.39115635 51.53513931 -19.43212891 48.69262695 C-19.48191132 45.23729346 -19.50627352 41.78261335 -19.51332474 38.32693672 C-19.52315657 36.39504523 -19.5572882 34.46332527 -19.59213257 32.53172302 C-19.57071558 23.48244131 -18.25174053 14.64483281 -11.92196655 7.72984314 C-10.01918249 6.01127451 -8.08591253 4.48875268 -6 3 C-5.30003906 2.44441406 -4.60007813 1.88882813 -3.87890625 1.31640625 C-2 0 -2 0 0 0 Z " fill="#418D87" transform="translate(242,170)"/>
<path d="M0 0 C7.75688383 3.63088179 13.08939953 8.06019134 16.24609375 16.0859375 C18.86970537 24.50911166 19.44421393 31.04038515 15.921875 39.2890625 C13.17168067 44.11092552 9.33079509 47.98458145 5.43359375 51.8984375 C4.44359375 51.4034375 4.44359375 51.4034375 3.43359375 50.8984375 C4.24609375 48.9609375 4.24609375 48.9609375 5.43359375 46.8984375 C6.42359375 46.5684375 7.41359375 46.2384375 8.43359375 45.8984375 C9.65879639 42.88996332 9.65879639 42.88996332 10.43359375 39.8984375 C11.09359375 39.8984375 11.75359375 39.8984375 12.43359375 39.8984375 C13.34234164 30.79867818 13.68690272 22.85580623 11.43359375 13.8984375 C10.44359375 13.8984375 9.45359375 13.8984375 8.43359375 13.8984375 C8.35109375 13.3003125 8.26859375 12.7021875 8.18359375 12.0859375 C7.00800441 8.65713526 4.56883273 7.52098791 1.49609375 5.8359375 C0.47515625 5.371875 0.47515625 5.371875 -0.56640625 4.8984375 C-1.29988281 4.55554688 -2.03335937 4.21265625 -2.7890625 3.859375 C-6.0149547 2.74324352 -8.65745829 2.59788475 -12.06640625 2.5859375 C-13.16984375 2.56917969 -14.27328125 2.55242187 -15.41015625 2.53515625 C-18.89952336 2.93677895 -20.6469076 4.03034959 -23.56640625 5.8984375 C-27.37890625 6.0859375 -27.37890625 6.0859375 -30.56640625 5.8984375 C-22.74328039 -2.82735673 -10.69470476 -3.30329326 0 0 Z " fill="#82E4DA" transform="translate(364.56640625,135.1015625)"/>
<path d="M0 0 C15.48186047 -0.7827907 15.48186047 -0.7827907 22 4 C22.69867188 4.50917969 23.39734375 5.01835937 24.1171875 5.54296875 C29.9009671 10.17211103 32.68706725 15.06120176 35 22 C35.10400562 24.02343146 35.14859611 26.05010799 35.16113281 28.07617188 C35.17074036 29.32756958 35.1803479 30.57896729 35.19024658 31.86828613 C35.19509346 33.23510557 35.19937256 34.60192712 35.203125 35.96875 C35.20887785 37.369751 35.21463557 38.77075197 35.22039795 40.17175293 C35.23089622 43.10718146 35.2367471 46.04258269 35.24023438 48.97802734 C35.24572823 52.74101014 35.26977968 56.50363276 35.29820633 60.26650238 C35.31681664 63.15925153 35.32203735 66.05191344 35.32357025 68.94471741 C35.32659907 70.33221921 35.33463537 71.7197194 35.34775543 73.10716248 C35.36478643 75.04597839 35.36109514 76.98494299 35.35644531 78.92382812 C35.36191376 80.5790448 35.36191376 80.5790448 35.36749268 82.2677002 C35 85 35 85 33.66522217 86.87976074 C32 88 32 88 29 88 C29 86.35 29 84.7 29 83 C30.485 82.505 30.485 82.505 32 82 C32.05090835 74.47439478 32.08582092 66.94883434 32.10986328 59.4230957 C32.11989132 56.86546163 32.13351707 54.30783894 32.15087891 51.75024414 C32.17526779 48.06393618 32.1865154 44.37778046 32.1953125 40.69140625 C32.20563507 39.55667374 32.21595764 38.42194122 32.22659302 37.25282288 C32.22748937 30.84185539 31.65223944 25.20018572 30 19 C29.01 19.33 28.02 19.66 27 20 C26.67 17.69 26.34 15.38 26 13 C23.05270463 11.84188612 23.05270463 11.84188612 20 12 C19.67 9.36 19.34 6.72 19 4 C18.21625 3.855625 17.4325 3.71125 16.625 3.5625 C14 3 14 3 12 2 C11.67 2.66 11.34 3.32 11 4 C10.01 3.67 9.02 3.34 8 3 C6.60560336 2.93334624 5.20830125 2.91461801 3.8125 2.9375 C2.554375 2.958125 1.29625 2.97875 0 3 C0 2.01 0 1.02 0 0 Z " fill="#4ED7C9" transform="translate(245,169)"/>
<path d="M0 0 C0.66 0.33 1.32 0.66 2 1 C1.505 1.845625 1.01 2.69125 0.5 3.5625 C-1.45486793 8.04240567 -1.26660465 11.53390698 -0.75 16.3125 C-0.12230474 18.12638526 -0.12230474 18.12638526 1.625 19.09765625 C4.76141979 20.28928943 7.40498908 20.19190022 10.75 20.125 C11.92046875 20.10695312 13.0909375 20.08890625 14.296875 20.0703125 C15.63492187 20.03550781 15.63492187 20.03550781 17 20 C16.01 21.98 15.02 23.96 14 26 C12.68 26 11.36 26 10 26 C10 26.99 10 27.98 10 29 C5.30524633 29.92053993 2.27192062 30.31904262 -2 28 C-4.5654594 25.4345406 -4.54046087 23.52313332 -5 20 C-5.66 20 -6.32 20 -7 20 C-8.00265368 14.98673158 -8.13320603 11.69305327 -6 7 C-4.4375 5.3125 -4.4375 5.3125 -3 4 C-2.67 3.01 -2.34 2.02 -2 1 C-1.34 0.67 -0.68 0.34 0 0 Z " fill="#2A6D69" transform="translate(242,224)"/>
<path d="M0 0 C0.66 0 1.32 0 2 0 C2.125 7.75 2.125 7.75 1 10 C1.32199562 12.38621572 1.32199562 12.38621572 1.9375 15 C3 19.8410596 3 19.8410596 3 22 C4.88316159 23.10836423 4.88316159 23.10836423 7 24 C7.66 23.67 8.32 23.34 9 23 C9.66 25.64 10.32 28.28 11 31 C14.153368 31.70074844 16.72724974 32 20 32 C22.6875 32.875 22.6875 32.875 25 34 C25.33 34.66 25.66 35.32 26 36 C30.51478398 35.46884894 33.34666857 33.63379708 37 31 C37.495 31.99 37.495 31.99 38 33 C39.65 31.68 41.3 30.36 43 29 C43 30.32 43 31.64 43 33 C37.77195171 35.99931115 32.59032906 38.74007974 27 41 C26.67 40.34 26.34 39.68 26 39 C24.08376425 38.52934561 22.16682984 38.0613129 20.24609375 37.609375 C11.82804958 35.32552302 5.06078094 30.18441266 0.609375 22.64453125 C-2.12204143 16.59502093 -2.90478489 10.58599232 -2 4 C-0.9765625 1.6796875 -0.9765625 1.6796875 0 0 Z " fill="#3E8F87" transform="translate(326,153)"/>
<path d="M0 0 C0.99 0.33 1.98 0.66 3 1 C3 1.99 3 2.98 3 4 C3.97753644 5.02196992 4.9805881 6.01979625 6 7 C6.4640625 8.0209375 6.4640625 8.0209375 6.9375 9.0625 C8.26605043 11.48515079 9.41544072 12.11155775 12 13 C12.66 12.67 13.32 12.34 14 12 C13.79375 12.721875 13.5875 13.44375 13.375 14.1875 C12.76125815 16.9723207 12.76125815 16.9723207 13.96237183 19.27311707 C15.19080277 22.50142897 15.24066178 24.99223919 15.22705078 28.44262695 C15.22689972 29.72357742 15.22674866 31.00452789 15.22659302 32.32429504 C15.2163813 33.71229205 15.20594933 35.10028744 15.1953125 36.48828125 C15.1915795 37.91602887 15.18873388 39.34377905 15.18673706 40.77153015 C15.17912318 44.51818999 15.15949419 48.26469326 15.1373291 52.0112915 C15.11682214 55.83888634 15.107725 59.66650662 15.09765625 63.49414062 C15.07624599 70.9961649 15.04213741 78.49806046 15 86 C14.67 86 14.34 86 14 86 C13.99453156 84.9024514 13.99453156 84.9024514 13.98895264 83.7827301 C13.95093153 76.85398719 13.89391993 69.92562633 13.81609726 62.99722385 C13.7767524 59.43603864 13.74450109 55.87509587 13.72900391 52.3137207 C13.71082509 48.21005435 13.66081789 44.10729148 13.609375 40.00390625 C13.60814636 38.73793106 13.60691772 37.47195587 13.60565186 36.1676178 C13.43774501 25.94463807 11.38303788 18.38303788 4 11 C-1.83442434 6.77862239 -6.44311263 4.93958625 -13.6875 4.4375 C-15.45673828 4.31181641 -15.45673828 4.31181641 -17.26171875 4.18359375 C-18.16535156 4.12300781 -19.06898438 4.06242188 -20 4 C-20 3.67 -20 3.34 -20 3 C-14.06 3 -8.12 3 -2 3 C-2 2.34 -2 1.68 -2 1 C-1.34 0.67 -0.68 0.34 0 0 Z " fill="#244F4C" transform="translate(266,165)"/>
<path d="M0 0 C0.99 0 1.98 0 3 0 C3.08857863 3.2914911 3.1409104 6.58266805 3.1875 9.875 C3.22520508 11.25171875 3.22520508 11.25171875 3.26367188 12.65625 C3.32944024 18.88232204 3.06254458 25.42402702 0 31 C-2.10864258 31.77294922 -2.10864258 31.77294922 -4 32 C-4.33 31.01 -4.66 30.02 -5 29 C-4.34 29 -3.68 29 -3 29 C-3.185625 28.38125 -3.37125 27.7625 -3.5625 27.125 C-4 25 -4 25 -3 23 C-2.68744353 20.14792222 -2.48962518 17.29503146 -2.28125 14.43359375 C-2 12 -2 12 -1 11 C-0.92811529 8.70418219 -1.00353568 6.42482931 -1.0625 4.12890625 C-1 2 -1 2 0 0 Z " fill="#0D0C0D" transform="translate(284,240)"/>
<path d="M0 0 C2.27929022 1.78957534 2.94759712 2.68652691 3.43359375 5.59375 C3.43552734 7.03234375 3.43552734 7.03234375 3.4375 8.5 C3.45683594 9.4590625 3.47617187 10.418125 3.49609375 11.40625 C3 14 3 14 1.16015625 15.90625 C0.44730469 16.2671875 -0.26554687 16.628125 -1 17 C-1.99 16.67 -2.98 16.34 -4 16 C-4.33 15.34 -4.66 14.68 -5 14 C-6.64363134 13.27840576 -8.31050386 12.60648579 -10 12 C-9.82701599 9.66471585 -9.29774631 8.30822418 -7.66796875 6.62109375 C-3.42788462 3 -3.42788462 3 -1 3 C-0.67 2.01 -0.34 1.02 0 0 Z " fill="#E9E9E9" transform="translate(279,278)"/>
<path d="M0 0 C0.99 0.33 1.98 0.66 3 1 C3.02687279 2.81242052 3.04633715 4.62495233 3.0625 6.4375 C3.07410156 7.44683594 3.08570313 8.45617187 3.09765625 9.49609375 C3 12 3 12 2 13 C1.81422064 14.70445187 1.67670464 16.41426114 1.5625 18.125 C1.19351981 22.68964198 0.44506655 26.66480036 -1 31 C-0.01 31.99 0.98 32.98 2 34 C-2.11378556 41.5273523 -2.11378556 41.5273523 -5.8125 43.5 C-6.8953125 43.7475 -6.8953125 43.7475 -8 44 C-8.495 42.515 -8.495 42.515 -9 41 C-8.175 40.46375 -7.35 39.9275 -6.5 39.375 C-3.69346187 37.25811752 -3.69346187 37.25811752 -3.875 34.25 C-3.91625 33.1775 -3.9575 32.105 -4 31 C-3.52175781 29.86046875 -3.04351562 28.7209375 -2.55078125 27.546875 C-0.42885457 22.13770125 -0.4384325 16.74971812 -0.3125 11 C-0.27833984 9.93910156 -0.24417969 8.87820312 -0.20898438 7.78515625 C-0.12716175 5.19020999 -0.05780005 2.59557364 0 0 Z " fill="#141817" transform="translate(281,239)"/>
<path d="M0 0 C0.66 0 1.32 0 2 0 C1.67 20.46 1.34 40.92 1 62 C0.01 62.495 0.01 62.495 -1 63 C-0.99777939 62.35377686 -0.99555878 61.70755371 -0.99327087 61.04174805 C-0.97108266 54.29297439 -0.95603703 47.54421117 -0.94506836 40.79541016 C-0.94005134 38.27945535 -0.93323622 35.76350344 -0.92456055 33.24755859 C-0.91237959 29.6233651 -0.90674526 25.99921029 -0.90234375 22.375 C-0.89718246 21.25697998 -0.89202118 20.13895996 -0.88670349 18.98706055 C-0.88637497 14.37444588 -0.93462067 9.91656098 -1.63110352 5.3515625 C-1.75283936 4.24554688 -1.8745752 3.13953125 -2 2 C-1.34 1.34 -0.68 0.68 0 0 Z " fill="#021414" transform="translate(222,188)"/>
<path d="M0 0 C-1.39412109 0.05607422 -1.39412109 0.05607422 -2.81640625 0.11328125 C-13.90605195 0.703033 -22.03540043 2.93119072 -30 11 C-32.01651358 14.20957846 -33.59230473 17.48429875 -35 21 C-35.33 21 -35.66 21 -36 21 C-36.37057967 16.0589377 -35.70678361 11.23187437 -33 7 C-31.0078125 6.421875 -31.0078125 6.421875 -29 6 C-28.071875 4.7934375 -28.071875 4.7934375 -27.125 3.5625 C-23.69377064 -0.57515893 -19.6735709 -0.98176999 -14.5625 -1.625 C-3.91834752 -2.61223168 -3.91834752 -2.61223168 0 0 Z " fill="#1A3335" transform="translate(260,168)"/>
<path d="M0 0 C0.66 0.33 1.32 0.66 2 1 C2 2.65 2 4.3 2 6 C1.34 5.67 0.68 5.34 0 5 C-2.9540719 9.26577569 -2.9540719 9.26577569 -5 14 C-5.66 14 -6.32 14 -7 14 C-7.33 14.66 -7.66 15.32 -8 16 C-8.69965443 14.73581754 -9.38434763 13.46334598 -10.0625 12.1875 C-10.44535156 11.47980469 -10.82820313 10.77210938 -11.22265625 10.04296875 C-12 8 -12 8 -11 5 C-9.00390625 3.8671875 -9.00390625 3.8671875 -6.5625 2.875 C-5.75941406 2.54242188 -4.95632813 2.20984375 -4.12890625 1.8671875 C-3.07509766 1.43792969 -3.07509766 1.43792969 -2 1 C-1.34 0.67 -0.68 0.34 0 0 Z " fill="#DDDDDE" transform="translate(366,187)"/>
<path d="M0 0 C0.66 0.33 1.32 0.66 2 1 C0.54715104 4.81474308 -1.16131841 5.92804904 -4.8125 7.625 C-6.09060547 8.23214844 -6.09060547 8.23214844 -7.39453125 8.8515625 C-9.90919234 9.95997383 -12.44108348 10.9984851 -15 12 C-15.556875 11.38125 -16.11375 10.7625 -16.6875 10.125 C-19.06645178 7.93893621 -20.96357096 7.01214301 -24 6 C-23.01 5.01 -22.02 4.02 -21 3 C-17.125 4.75 -17.125 4.75 -16 7 C-11.48521602 6.46884894 -8.65333143 4.63379708 -5 2 C-4.67 2.66 -4.34 3.32 -4 4 C-2.68 2.68 -1.36 1.36 0 0 Z " fill="#51A59C" transform="translate(368,182)"/>
<path d="M0 0 C3.73487777 0.4979837 5.81237635 0.87491756 9 3 C9 3.66 9 4.32 9 5 C9.99 5.33 10.98 5.66 12 6 C16.30268293 11.76528558 16.51354292 16.39786321 16.25 23.4375 C16.23195313 24.35982422 16.21390625 25.28214844 16.1953125 26.23242188 C16.14853601 28.48938733 16.08301871 30.74412612 16 33 C14.515 33.495 14.515 33.495 13 34 C13.14308594 32.78376953 13.14308594 32.78376953 13.2890625 31.54296875 C14.04866005 23.95582575 13.79721347 17.41164894 12 10 C11.01 10 10.02 10 9 10 C8.87625 9.1028125 8.87625 9.1028125 8.75 8.1875 C7.53788021 4.6521506 4.94134189 3.49681933 1.75 1.8125 C1.1725 1.544375 0.595 1.27625 0 1 C0 0.67 0 0.34 0 0 Z " fill="#52E2D2" transform="translate(364,139)"/>
<path d="M0 0 C0.33 0 0.66 0 1 0 C1.09796875 0.69867188 1.1959375 1.39734375 1.296875 2.1171875 C1.44640625 3.02726563 1.5959375 3.93734375 1.75 4.875 C1.88921875 5.77992188 2.0284375 6.68484375 2.171875 7.6171875 C2.77435648 10.10792467 2.77435648 10.10792467 4.8125 11.25 C6.94921776 11.98258895 9.05030485 12.6117378 11.25 13.125 C13.10625 13.558125 13.10625 13.558125 15 14 C14.67 14.99 14.34 15.98 14 17 C9.52005462 17.17568413 5.93506934 17.29545711 2 15 C-1.5679453 10.81689172 -1.34411038 7.24768331 -1 2 C-0.67 1.34 -0.34 0.68 0 0 Z " fill="#134F4E" transform="translate(239,232)"/>
<path d="M0 0 C3.465 1.98 3.465 1.98 7 4 C5.75037104 8.4778371 4.25851406 11.64274309 1 15 C0.01 15 -0.98 15 -2 15 C-1.855625 14.319375 -1.71125 13.63875 -1.5625 12.9375 C-0.73751411 8.62924033 0 4.39283795 0 0 Z " fill="#DCE2E2" transform="translate(321,143)"/>
<path d="M0 0 C0.99 0.33 1.98 0.66 3 1 C3 1.99 3 2.98 3 4 C4.43750191 5.68798827 4.43750191 5.68798827 6 7 C5.67 7.99 5.34 8.98 5 10 C4.67 9.01 4.34 8.02 4 7 C2.6696875 7.061875 2.6696875 7.061875 1.3125 7.125 C-2 7 -2 7 -4.28125 6.03125 C-7.51848714 4.80333246 -10.36252933 4.58408913 -13.8125 4.375 C-14.97394531 4.30023438 -16.13539063 4.22546875 -17.33203125 4.1484375 C-18.21246094 4.09945312 -19.09289062 4.05046875 -20 4 C-20 3.67 -20 3.34 -20 3 C-14.06 3 -8.12 3 -2 3 C-2 2.34 -2 1.68 -2 1 C-1.34 0.67 -0.68 0.34 0 0 Z " fill="#2D4342" transform="translate(266,165)"/>
<path d="M0 0 C0.66 0 1.32 0 2 0 C2.50471197 1.76949612 3.00360685 3.54065223 3.5 5.3125 C3.7784375 6.29863281 4.056875 7.28476563 4.34375 8.30078125 C5 11 5 11 5 14 C4.34 14 3.68 14 3 14 C3 13.01 3 12.02 3 11 C2.34 11 1.68 11 1 11 C0.67 11.66 0.34 12.32 0 13 C-0.66 13 -1.32 13 -2 13 C-3.125 5.375 -3.125 5.375 -2 2 C-1.34 2 -0.68 2 0 2 C0 1.34 0 0.68 0 0 Z " fill="#060E0D" transform="translate(322,163)"/>
<path d="M0 0 C0 0.66 0 1.32 0 2 C-0.78375 2.45375 -1.5675 2.9075 -2.375 3.375 C-5.18147668 5.1123427 -5.73122102 6.0720485 -7 9 C-7.99 9.495 -7.99 9.495 -9 10 C-9.33 11.155 -9.66 12.31 -10 13.5 C-10.33 14.655 -10.66 15.81 -11 17 C-11.66 17.33 -12.32 17.66 -13 18 C-14.0409066 19.64142963 -15.04504326 21.30712215 -16 23 C-16.33 22.34 -16.66 21.68 -17 21 C-14.51612903 14.25806452 -14.51612903 14.25806452 -12 13 C-12.10054687 12.26394531 -12.20109375 11.52789062 -12.3046875 10.76953125 C-12 8 -12 8 -9.8828125 5.76171875 C-8.51769531 4.73498047 -8.51769531 4.73498047 -7.125 3.6875 C-6.22007812 2.99011719 -5.31515625 2.29273438 -4.3828125 1.57421875 C-2 0 -2 0 0 0 Z " fill="#43ABA2" transform="translate(242,170)"/>
<path d="M0 0 C0.33 0 0.66 0 1 0 C1.05429959 1.74965358 1.09292823 3.49979787 1.125 5.25 C1.14820313 6.22453125 1.17140625 7.1990625 1.1953125 8.203125 C0.91668242 12.19310768 -0.19942241 14.19942241 -3 17 C-3.639375 18.03125 -4.27875 19.0625 -4.9375 20.125 C-5.618125 21.07375 -6.29875 22.0225 -7 23 C-7.99 23 -8.98 23 -10 23 C-10.33 23.66 -10.66 24.32 -11 25 C-11.66 24.34 -12.32 23.68 -13 23 C-12.113125 22.360625 -11.22625 21.72125 -10.3125 21.0625 C-3.75839766 15.56201222 -1.42777204 8.17723986 0 0 Z " fill="#12302F" transform="translate(280,251)"/>
<path d="M0 0 C0.33 0 0.66 0 1 0 C2.09323484 16.49974802 2.09323484 16.49974802 -3.33203125 23.2265625 C-3.88246094 23.81179687 -4.43289063 24.39703125 -5 25 C-5.49886719 25.54398438 -5.99773437 26.08796875 -6.51171875 26.6484375 C-7.63088579 27.80929271 -8.80844208 28.91357954 -10 30 C-10.66 29.67 -11.32 29.34 -12 29 C-11.1875 27.0625 -11.1875 27.0625 -10 25 C-9.01 24.67 -8.02 24.34 -7 24 C-5.77479736 20.99152582 -5.77479736 20.99152582 -5 18 C-4.34 18 -3.68 18 -3 18 C-2.67 17.01 -2.34 16.02 -2 15 C-1.34 15 -0.68 15 0 15 C0 10.05 0 5.1 0 0 Z " fill="#6CDCCF" transform="translate(380,157)"/>
<path d="M0 0 C0.99 0.33 1.98 0.66 3 1 C-5.06406345 7.12868822 -10.91873162 8.3228876 -21 8 C-21.33 7.01 -21.66 6.02 -22 5 C-18.7 5.33 -15.4 5.66 -12 6 C-11.67 5.01 -11.34 4.02 -11 3 C-8.02148438 3.04882812 -8.02148438 3.04882812 -5.04296875 3.09765625 C-2.79694539 3.08263217 -2.79694539 3.08263217 0 2 C0 1.34 0 0.68 0 0 Z " fill="#4AA29C" transform="translate(268,271)"/>
<path d="M0 0 C0.99 0 1.98 0 3 0 C3.33 0.66 3.66 1.32 4 2 C5.32 2 6.64 2 8 2 C8 3.65 8 5.3 8 7 C10.64 7.33 13.28 7.66 16 8 C16 8.33 16 8.66 16 9 C14.08458862 9.10841951 12.16740227 9.18578079 10.25 9.25 C8.64898437 9.31960938 8.64898437 9.31960938 7.015625 9.390625 C4 9 4 9 1.625 7.15625 C-0.3327841 4.55842109 -0.35319036 3.17871322 0 0 Z " fill="#C3C3C3" transform="translate(223,323)"/>
<path d="M0 0 C0.66 0.33 1.32 0.66 2 1 C-0.475 5.455 -0.475 5.455 -3 10 C-3.66 10 -4.32 10 -5 10 C-4.938125 11.918125 -4.938125 11.918125 -4.875 13.875 C-4.8046875 16.0546875 -4.8046875 16.0546875 -5 18 C-5.66 18.66 -6.32 19.32 -7 20 C-8.00265368 14.98673158 -8.13320603 11.69305327 -6 7 C-4.4375 5.3125 -4.4375 5.3125 -3 4 C-2.67 3.01 -2.34 2.02 -2 1 C-1.34 0.67 -0.68 0.34 0 0 Z " fill="#2E7E78" transform="translate(242,224)"/>
<path d="M0 0 C0.66 0.33 1.32 0.66 2 1 C2 1.66 2 2.32 2 3 C2.33 3.66 2.66 4.32 3 5 C3.08543895 7.10528933 3.10714725 9.21331157 3.09765625 11.3203125 C3.09443359 12.57714844 3.09121094 13.83398438 3.08789062 15.12890625 C3.07951172 16.44761719 3.07113281 17.76632813 3.0625 19.125 C3.05748489 20.46484211 3.05292201 21.804686 3.04882812 23.14453125 C3.03701086 26.42973206 3.02053617 29.71484397 3 33 C2.67 33 2.34 33 2 33 C1.67 24.42 1.34 15.84 1 7 C-1.31 6.34 -3.62 5.68 -6 5 C-6 4.34 -6 3.68 -6 3 C-4.68 3.33 -3.36 3.66 -2 4 C-2 3.01 -2 2.02 -2 1 C-1.34 0.67 -0.68 0.34 0 0 Z " fill="#555555" transform="translate(297,226)"/>
<path d="M0 0 C5.00600922 0.54681024 8.97181067 2.24140333 13.375 4.5625 C14.01566406 4.89185547 14.65632813 5.22121094 15.31640625 5.56054688 C16.88138632 6.36639482 18.44124021 7.18218493 20 8 C19.67 8.66 19.34 9.32 19 10 C16.03 9.505 16.03 9.505 13 9 C13 8.34 13 7.68 13 7 C12.34 6.7525 11.68 6.505 11 6.25 C7.23639093 4.68182955 3.6288576 2.85494954 0 1 C0 0.67 0 0.34 0 0 Z " fill="#1A1A1A" transform="translate(290,145)"/>
<path d="M0 0 C0.76699219 -0.00322266 1.53398437 -0.00644531 2.32421875 -0.00976562 C7.98242707 0.04492707 7.98242707 0.04492707 10.25 2.3125 C3.98 2.3125 -2.29 2.3125 -8.75 2.3125 C-8.75 3.3025 -8.75 4.2925 -8.75 5.3125 C-12.05 5.9725 -15.35 6.6325 -18.75 7.3125 C-13.22569345 1.15077346 -7.93670573 -0.17016951 0 0 Z " fill="#8FDDD7" transform="translate(352.75,133.6875)"/>
<path d="M0 0 C2.86724686 0.57344937 3.8614515 0.8614515 6 3 C6.22705078 4.87939453 6.22705078 4.87939453 6.1953125 7.1328125 C6.18886719 7.93847656 6.18242187 8.74414062 6.17578125 9.57421875 C6.15902344 10.41597656 6.14226562 11.25773438 6.125 12.125 C6.11597656 12.97449219 6.10695312 13.82398438 6.09765625 14.69921875 C6.07405647 16.79959884 6.03818483 18.89983444 6 21 C5.67 21 5.34 21 5 21 C4.67 16.71 4.34 12.42 4 8 C2.35 7.67 0.7 7.34 -1 7 C-0.67 4.69 -0.34 2.38 0 0 Z " fill="#C9C9C9" transform="translate(209,231)"/>
<path d="M0 0 C0 3 0 3 -1.5625 4.625 C-4.74166549 6.41837541 -7.37141012 6.80207692 -11 7 C-14 5 -14 5 -16 3 C-14.64455078 2.80083984 -14.64455078 2.80083984 -13.26171875 2.59765625 C-12.08222656 2.42105469 -10.90273437 2.24445313 -9.6875 2.0625 C-7.92986328 1.80146484 -7.92986328 1.80146484 -6.13671875 1.53515625 C-2.98358597 1.07906969 -2.98358597 1.07906969 0 0 Z " fill="#061719" transform="translate(264,276)"/>
<path d="M0 0 C1.32 0.33 2.64 0.66 4 1 C3.401875 1.886875 2.80375 2.77375 2.1875 3.6875 C0.01539678 6.87378402 0.01539678 6.87378402 -1.5625 9.875 C-2.036875 10.57625 -2.51125 11.2775 -3 12 C-3.99 12 -4.98 12 -6 12 C-5.34 9.36 -4.68 6.72 -4 4 C-3.34 4 -2.68 4 -2 4 C-1.34 2.68 -0.68 1.36 0 0 Z " fill="#65C3B9" transform="translate(332,141)"/>
<path d="M0 0 C0 0.99 0 1.98 0 3 C0.98033203 3.13728516 0.98033203 3.13728516 1.98046875 3.27734375 C5.98990219 4.23691061 9.56386353 5.87075611 13.3125 7.5625 C14.42334961 8.0565332 14.42334961 8.0565332 15.55664062 8.56054688 C17.37311562 9.36917123 19.18683931 10.18397116 21 11 C17.68257581 12.13310814 16.02288617 11.91412545 12.84765625 10.48828125 C11.68266602 9.96911133 11.68266602 9.96911133 10.49414062 9.43945312 C9.69169922 9.06755859 8.88925781 8.69566406 8.0625 8.3125 C6.86463867 7.78366211 6.86463867 7.78366211 5.64257812 7.24414062 C1.28123741 5.26762582 -2.39702978 3.22447638 -6 0 C-3 -1 -3 -1 0 0 Z " fill="#737373" transform="translate(191,360)"/>
<path d="M0 0 C0 3 0 3 -1.5 4.6875 C-1.995 5.120625 -2.49 5.55375 -3 6 C-3.66 5.67 -4.32 5.34 -5 5 C-3.35 3.35 -1.7 1.7 0 0 Z M-7 6 C-6.34 6.33 -5.68 6.66 -5 7 C-5.99 9.31 -6.98 11.62 -8 14 C-9.65 14 -11.3 14 -13 14 C-12.8125 11.6875 -12.8125 11.6875 -12 9 C-9.5625 7.125 -9.5625 7.125 -7 6 Z " fill="#D9D9D9" transform="translate(323,337)"/>
<path d="M0 0 C1.2455356 3.73660681 0.52976865 4.74066419 -0.9375 8.3125 C-2.54235068 12.45334339 -3.2294136 15.52643488 -3 20 C-3.66 20.66 -4.32 21.32 -5 22 C-5.67651207 24.19704511 -5.67651207 24.19704511 -6.125 26.625 C-6.29257813 27.44226563 -6.46015625 28.25953125 -6.6328125 29.1015625 C-6.75398438 29.72804687 -6.87515625 30.35453125 -7 31 C-7.33 31 -7.66 31 -8 31 C-7.71579135 20.25174559 -4.0991068 9.85692194 0 0 Z " fill="#787878" transform="translate(133,199)"/>
<path d="M0 0 C0.66 0 1.32 0 2 0 C2.598125 0.804375 3.19625 1.60875 3.8125 2.4375 C6.34609693 5.40542783 7.28698633 5.44304795 11 6 C12.36733028 6.95298777 13.70264493 7.95374591 15 9 C16.31836295 9.69580267 17.64791086 10.37224433 19 11 C16.41640173 11.96661182 15.24818298 12.08474541 12.59765625 11.1796875 C7.64102677 8.62881809 3.53612344 6.36121891 0 2 C0 1.34 0 0.68 0 0 Z " fill="#448B84" transform="translate(331,179)"/>
<path d="M0 0 C0.66 0 1.32 0 2 0 C2.125 7.75 2.125 7.75 1 10 C1.33 10.66 1.66 11.32 2 12 C2.04022391 14.3329866 2.04320247 16.66706666 2 19 C-1.01787733 14.47318401 -2.1339442 10.6341193 -1.6875 5.1875 C-1 2 -1 2 0 0 Z " fill="#45A399" transform="translate(326,153)"/>
<path d="M0 0 C2 2 2 2 2 5 C3.32 5.66 4.64 6.32 6 7 C5.979375 8.19625 5.95875 9.3925 5.9375 10.625 C5.93117429 14.18004869 6.30111125 17.50555624 7 21 C4.29646988 18.29646988 3.53245504 15.17811781 2.375 11.625 C2.03082031 10.61566406 2.03082031 10.61566406 1.6796875 9.5859375 C0.55368814 6.18112992 0 3.62604845 0 0 Z " fill="#79797A" transform="translate(127,281)"/>
<path d="M0 0 C0.33 0 0.66 0 1 0 C1 1.65 1 3.3 1 5 C1.66 5 2.32 5 3 5 C3.268125 5.78375 3.53625 6.5675 3.8125 7.375 C4.84814432 10.28114923 4.84814432 10.28114923 8 12 C10.27912938 12.45394552 10.27912938 12.45394552 12.6875 12.625 C13.49574219 12.69976562 14.30398437 12.77453125 15.13671875 12.8515625 C15.75160156 12.90054688 16.36648438 12.94953125 17 13 C17 13.33 17 13.66 17 14 C7.03348923 14.78545181 7.03348923 14.78545181 2.875 11.625 C-0.09368318 7.46884355 -0.0945311 5.10467931 0 0 Z " fill="#4DB8AE" transform="translate(240,231)"/>
<path d="M0 0 C0.99 1.485 0.99 1.485 2 3 C2.99 3.66 3.98 4.32 5 5 C5.73046875 7.6015625 5.73046875 7.6015625 6.1875 10.625 C6.34605469 11.62789063 6.50460938 12.63078125 6.66796875 13.6640625 C6.77753906 14.43492187 6.88710937 15.20578125 7 16 C3.27844005 12.79175867 1.62088529 9.61952308 0 5 C-0.1875 2.0625 -0.1875 2.0625 0 0 Z " fill="#3F8782" transform="translate(224,253)"/>
<path d="M0 0 C0.66015625 1.7734375 0.66015625 1.7734375 1 4 C-1.20682563 8.07017645 -4.15613567 10.64057631 -8.375 12.4375 C-9.674375 12.7159375 -9.674375 12.7159375 -11 13 C-11 12.34 -11 11.68 -11 11 C-9.68 10.67 -8.36 10.34 -7 10 C-7 9.01 -7 8.02 -7 7 C-5.68 7 -4.36 7 -3 7 C-2.690625 6.21625 -2.38125 5.4325 -2.0625 4.625 C-1 2 -1 2 0 0 Z " fill="#36AFA8" transform="translate(259,243)"/>
<path d="M0 0 C0.99 0 1.98 0 3 0 C1.40109514 5.19644079 -0.74138003 10.06612142 -3 15 C-3.33 15 -3.66 15 -4 15 C-4.39473574 9.73685677 -3.17298232 5.71751084 -1 1 C-0.67 0.67 -0.34 0.34 0 0 Z " fill="#19282B" transform="translate(228,174)"/>
<path d="M0 0 C4.29 0 8.58 0 13 0 C13 0.99 13 1.98 13 3 C8.33533582 3.91464004 5.23405029 4.36608693 1 2 C0.67 1.34 0.34 0.68 0 0 Z " fill="#358884" transform="translate(239,250)"/>
<path d="M0 0 C4.6460097 2.80921516 7.86216434 5.53096133 11 10 C10.67 10.99 10.34 11.98 10 13 C7 9.25 7 9.25 7 7 C6.21625 6.71125 5.4325 6.4225 4.625 6.125 C2 5 2 5 0 3 C0 2.01 0 1.02 0 0 Z " fill="#57CFC1" transform="translate(266,173)"/>
<path d="M0 0 C4.67692308 1.47692308 4.67692308 1.47692308 6.3125 4.125 C6.539375 4.74375 6.76625 5.3625 7 6 C4.23735711 6.59732819 1.83967231 7 -1 7 C-1 6.34 -1 5.68 -1 5 C-0.01 5 0.98 5 2 5 C1.01 3.68 0.02 2.36 -1 1 C-0.67 0.67 -0.34 0.34 0 0 Z " fill="#040A0B" transform="translate(333,184)"/>
<path d="M0 0 C3.88019859 1.25844278 5.9411842 2.42416203 8 6 C8 6.99 8 7.98 8 9 C6.02 9.99 6.02 9.99 4 11 C3.67 8.69 3.34 6.38 3 4 C2.01 3.67 1.02 3.34 0 3 C0 2.01 0 1.02 0 0 Z " fill="#3EE7D2" transform="translate(268,178)"/>
<path d="M0 0 C1.65 0 3.3 0 5 0 C5.33 0.99 5.66 1.98 6 3 C5.01 3.99 4.02 4.98 3 6 C0.525 5.01 0.525 5.01 -2 4 C-1.34 2.68 -0.68 1.36 0 0 Z " fill="#D0D0D0" transform="translate(226,320)"/>
<path d="M0 0 C0.99 0.495 0.99 0.495 2 1 C2 1.66 2 2.32 2 3 C6.29 3.66 10.58 4.32 15 5 C14.67 5.66 14.34 6.32 14 7 C5.86503067 7.3190184 5.86503067 7.3190184 2 5 C0.6875 2.375 0.6875 2.375 0 0 Z " fill="#205552" transform="translate(239,242)"/>
<path d="M0 0 C0.66 0.33 1.32 0.66 2 1 C1 4 1 4 -2 6 C-2.99 7.485 -2.99 7.485 -4 9 C-4.66 7.02 -5.32 5.04 -6 3 C-4.03533587 1.93224776 -2.03144641 0.93446535 0 0 Z " fill="#B3BBBF" transform="translate(360,190)"/>
<path d="M0 0 C1.65 0 3.3 0 5 0 C5.33 0.66 5.66 1.32 6 2 C4.9375 3.5 4.9375 3.5 3 5 C-0.6875 5.1875 -0.6875 5.1875 -4 5 C-3.34 4.01 -2.68 3.02 -2 2 C-1.67 2.33 -1.34 2.66 -1 3 C-0.67 2.01 -0.34 1.02 0 0 Z " fill="#E5E5E5" transform="translate(261,297)"/>
<path d="M0 0 C6.70459519 5.0940919 6.70459519 5.0940919 7.9375 8.875 C7.958125 9.57625 7.97875 10.2775 8 11 C1.29540481 7.04376368 1.29540481 7.04376368 0.0625 2.6875 C0.041875 1.800625 0.02125 0.91375 0 0 Z " fill="#CACACA" transform="translate(159,319)"/>
<path d="M0 0 C1.32 0.33 2.64 0.66 4 1 C2.90653119 2.34212062 1.7998425 3.67347975 0.6875 5 C-0.23482422 6.11375 -0.23482422 6.11375 -1.17578125 7.25 C-3 9 -3 9 -6 9 C-5.1875 7.0625 -5.1875 7.0625 -4 5 C-3.01 4.67 -2.02 4.34 -1 4 C-0.26676204 1.98491642 -0.26676204 1.98491642 0 0 Z " fill="#7FD4C8" transform="translate(374,177)"/>
<path d="M0 0 C0.99 0.495 0.99 0.495 2 1 C1.01 1.495 1.01 1.495 0 2 C0 1.34 0 0.68 0 0 Z M-2 2 C-1.34 2 -0.68 2 0 2 C-0.28127421 3.48117801 -0.57533732 4.95993249 -0.875 6.4375 C-1.03742188 7.26121094 -1.19984375 8.08492187 -1.3671875 8.93359375 C-1.68042969 9.95646484 -1.68042969 9.95646484 -2 11 C-2.99 11.495 -2.99 11.495 -4 12 C-4.1953125 5.9453125 -4.1953125 5.9453125 -4 4 C-3.34 3.34 -2.68 2.68 -2 2 Z " fill="#42CABE" transform="translate(245,224)"/>
<path d="M0 0 C1.68155254 3.36310508 -0.03283046 6.47267579 -1 10 C-3.31 8.35 -5.62 6.7 -8 5 C-6 4 -6 4 -4 3.625 C-1.62014703 3.11133621 -1.62014703 3.11133621 0 0 Z " fill="#AFC1C3" transform="translate(325,153)"/>
<path d="M0 0 C-1.485 2.475 -1.485 2.475 -3 5 C-4.32 4.67 -5.64 4.34 -7 4 C-6.34 3.01 -5.68 2.02 -5 1 C-6.98 1 -8.96 1 -11 1 C-11 0.67 -11 0.34 -11 0 C-9.54263913 -0.19491452 -8.08405407 -0.38069358 -6.625 -0.5625 C-5.81289062 -0.66691406 -5.00078125 -0.77132812 -4.1640625 -0.87890625 C-2 -1 -2 -1 0 0 Z " fill="#2C8684" transform="translate(259,245)"/>
<path d="M0 0 C0.66 0.33 1.32 0.66 2 1 C1.375 2.9375 1.375 2.9375 0 5 C-3.58589143 5.99184231 -5.44712603 6.18429132 -9 5 C-7.68 4.01 -6.36 3.02 -5 2 C-4.67 2.66 -4.34 3.32 -4 4 C-2.68 2.68 -1.36 1.36 0 0 Z " fill="#46B7A9" transform="translate(368,182)"/>
<path d="M0 0 C1 2 1 2 0.0625 5.125 C-0.288125 6.07375 -0.63875 7.0225 -1 8 C-2.65 7.67 -4.3 7.34 -6 7 C-4.02 4.69 -2.04 2.38 0 0 Z " fill="#E1E1E1" transform="translate(335,326)"/>
<path d="M0 0 C4 2 4 2 4.75 4.125 C4.8325 4.74375 4.915 5.3625 5 6 C4.34 6 3.68 6 3 6 C3 6.66 3 7.32 3 8 C2.34 8 1.68 8 1 8 C0.67 8.66 0.34 9.32 0 10 C0 6.7 0 3.4 0 0 Z " fill="#EFF1EF" transform="translate(321,143)"/>
<path d="M0 0 C4.38332057 0.82187261 8.67940177 1.90154282 13 3 C13 3.33 13 3.66 13 4 C11.58376784 4.05447047 10.16691809 4.09300508 8.75 4.125 C7.96109375 4.14820313 7.1721875 4.17140625 6.359375 4.1953125 C3.79268059 3.9828378 2.2083933 3.28654105 0 2 C0 1.34 0 0.68 0 0 Z " fill="#104441" transform="translate(241,243)"/>
<path d="M0 0 C0.33 0 0.66 0 1 0 C1.05391993 1.79133978 1.09275571 3.58313899 1.125 5.375 C1.14820313 6.37273437 1.17140625 7.37046875 1.1953125 8.3984375 C1 11 1 11 -1 13 C-2.07310858 9.72814447 -1.89263102 7.57052408 -1.0625 4.25 C-0.86785156 3.45078125 -0.67320312 2.6515625 -0.47265625 1.828125 C-0.31667969 1.22484375 -0.16070312 0.6215625 0 0 Z " fill="#082C2A" transform="translate(280,251)"/>
<path d="M0 0 C0.66 0.33 1.32 0.66 2 1 C0.875 3.875 0.875 3.875 -1 7 C-4.1875 8.375 -4.1875 8.375 -7 9 C-6.360625 8.236875 -5.72125 7.47375 -5.0625 6.6875 C-2.85767219 4.11753287 -2.85767219 4.11753287 -2 1 C-1.34 0.67 -0.68 0.34 0 0 Z " fill="#339C94" transform="translate(242,224)"/>
<path d="M0 0 C0.99 0.33 1.98 0.66 3 1 C3.1875 3.875 3.1875 3.875 3 7 C2.01 7.66 1.02 8.32 0 9 C0 7.02 0 5.04 0 3 C-0.66 3 -1.32 3 -2 3 C-2 2.34 -2 1.68 -2 1 C-1.34 0.67 -0.68 0.34 0 0 Z " fill="#37D2C4" transform="translate(261,240)"/>
<path d="M0 0 C4.875 1.75 4.875 1.75 6 4 C6.66 4.33 7.32 4.66 8 5 C0.25 4.25 0.25 4.25 -2 2 C-1.34 1.34 -0.68 0.68 0 0 Z " fill="#39A296" transform="translate(346,185)"/>
<path d="M0 0 C4.7517398 0.43197635 6.92000054 1.32769295 10 5 C9.67 5.66 9.34 6.32 9 7 C7.88625 6.071875 7.88625 6.071875 6.75 5.125 C4.51198812 3.39562719 2.56260013 2.13893339 0 1 C0 0.67 0 0.34 0 0 Z " fill="#50E4D1" transform="translate(364,139)"/>
<path d="M0 0 C2.97 0.495 2.97 0.495 6 1 C5.34 2.98 4.68 4.96 4 7 C1.49962266 4.82575883 0.56371414 3.26954202 0 0 Z " fill="#919899" transform="translate(136,306)"/>
<path d="M0 0 C2.7972908 2.06756277 3.02692273 3.14440371 3.6875 6.6875 C3.790625 7.780625 3.89375 8.87375 4 10 C2 9 2 9 0.875 6.6875 C0 4 0 4 0 0 Z " fill="#030D0F" transform="translate(224,260)"/>
<path d="M0 0 C2.31 0.33 4.62 0.66 7 1 C6.67 2.98 6.34 4.96 6 7 C3.95880212 5.38405168 1.95927063 3.7143618 0 2 C0 1.34 0 0.68 0 0 Z " fill="#888888" transform="translate(153,332)"/>
<path d="M0 0 C0.66 0.33 1.32 0.66 2 1 C0.25 8.75 0.25 8.75 -2 11 C-1 3.57142857 -1 3.57142857 0 0 Z " fill="#51C4B8" transform="translate(278,253)"/>
<path d="M0 0 C0.66 0 1.32 0 2 0 C2.33 1.32 2.66 2.64 3 4 C2.01 4.495 2.01 4.495 1 5 C-0.0409066 6.64142963 -1.04504326 8.30712215 -2 10 C-2.33 9.34 -2.66 8.68 -3 8 C-2.05007438 5.64583651 -1.05047644 3.31104818 0 1 C0 0.67 0 0.34 0 0 Z " fill="#3DA8A2" transform="translate(228,183)"/>
<path d="M0 0 C5.53846154 -0.36923077 5.53846154 -0.36923077 7.875 1.5 C8.24625 1.995 8.6175 2.49 9 3 C8.01 3.495 8.01 3.495 7 4 C4.64018187 3.06421005 2.30368736 2.06652192 0 1 C0 0.67 0 0.34 0 0 Z " fill="#75DED3" transform="translate(360,136)"/>
<path d="M0 0 C1.65 0 3.3 0 5 0 C4.67 1.32 4.34 2.64 4 4 C2.68 4 1.36 4 0 4 C0 2.68 0 1.36 0 0 Z " fill="#EAEAEA" transform="translate(310,347)"/>
<path d="M0 0 C2.31 0 4.62 0 7 0 C5.68 1.32 4.36 2.64 3 4 C1.68 3.34 0.36 2.68 -1 2 C-0.67 1.34 -0.34 0.68 0 0 Z " fill="#CBCACA" transform="translate(223,284)"/>
<path d="M0 0 C1 2 1 2 1 6 C0.01 6.495 0.01 6.495 -1 7 C-1.66 7.99 -2.32 8.98 -3 10 C-3.36629408 5.72656908 -2.40814077 3.51187196 0 0 Z " fill="#AAAAAA" transform="translate(137,191)"/>
<path d="M0 0 C0.66 0.33 1.32 0.66 2 1 C1.67 1.66 1.34 2.32 1 3 C0.01 3 -0.98 3 -2 3 C-2 3.99 -2 4.98 -2 6 C-2.99 6.33 -3.98 6.66 -5 7 C-4.60196439 4.11424181 -4.20990931 3.17810487 -1.9375 1.25 C-1.298125 0.8375 -0.65875 0.425 0 0 Z " fill="#BAD5D4" transform="translate(366,187)"/>
<path d="M0 0 C3.71888239 0.50712033 6.73454239 1.11608215 10 3 C9.34 3.66 8.68 4.32 8 5 C5.36 3.68 2.72 2.36 0 1 C0 0.67 0 0.34 0 0 Z " fill="#121212" transform="translate(290,145)"/>
<path d="M0 0 C0.99 0 1.98 0 3 0 C2.875 1.875 2.875 1.875 2 4 C-1.0625 5.25 -1.0625 5.25 -4 6 C-4 5.34 -4 4.68 -4 4 C-2.68 3.67 -1.36 3.34 0 3 C0 2.01 0 1.02 0 0 Z " fill="#38A09C" transform="translate(252,250)"/>
<path d="M0 0 C2.64 0 5.28 0 8 0 C8 0.66 8 1.32 8 2 C6.35 2.66 4.7 3.32 3 4 C2.01 2.68 1.02 1.36 0 0 Z " fill="#629994" transform="translate(350,190)"/>
<path d="M0 0 C1.32 0 2.64 0 4 0 C6.25 2.5 6.25 2.5 8 5 C5 5 5 5 2.3125 2.5 C1.549375 1.675 0.78625 0.85 0 0 Z " fill="#1E4746" transform="translate(266,172)"/>
<path d="M0 0 C2 1 2 1 2 1 Z " fill="#FFFFFF" transform="translate(318,397)"/>
<path d="" fill="#FFFFFF" transform="translate(0,0)"/>
<path d="" fill="#FFFFFF" transform="translate(0,0)"/>
<path d="" fill="#FFFFFF" transform="translate(0,0)"/>
<path d="" fill="#FFFFFF" transform="translate(0,0)"/>
<path d="" fill="#FFFFFF" transform="translate(0,0)"/>
<path d="" fill="#FFFFFF" transform="translate(0,0)"/>
<path d="" fill="#FFFFFF" transform="translate(0,0)"/>
<path d="" fill="#FFFFFF" transform="translate(0,0)"/>
<path d="" fill="#FFFFFF" transform="translate(0,0)"/>
<path d="" fill="#FFFFFF" transform="translate(0,0)"/>
<path d="" fill="#FFFFFF" transform="translate(0,0)"/>
<path d="" fill="#FFFFFF" transform="translate(0,0)"/>
<path d="" fill="#FFFFFF" transform="translate(0,0)"/>
<path d="" fill="#FFFFFF" transform="translate(0,0)"/>
<path d="" fill="#FFFFFF" transform="translate(0,0)"/>
<path d="" fill="#FFFFFF" transform="translate(0,0)"/>
<path d="" fill="#FFFFFF" transform="translate(0,0)"/>
<path d="" fill="#FF00FF" transform="translate(0,0)"/>
<path d="" fill="#FFFFFF" transform="translate(0,0)"/>
<path d="" fill="#000000" transform="translate(0,0)"/>
<path d="" fill="#FFFFFF" transform="translate(0,0)"/>
<path d="" fill="#000000" transform="translate(0,0)"/>
<path d="" fill="#FFFFFF" transform="translate(0,0)"/>
<path d="" fill="#FFFFFF" transform="translate(0,0)"/>
<path d="" fill="#FFFFFF" transform="translate(0,0)"/>
<path d="" fill="#FFFFFF" transform="translate(0,0)"/>
<path d="" fill="#000000" transform="translate(0,0)"/>
<path d="" fill="#FFFFFF" transform="translate(0,0)"/>
<path d="" fill="#000000" transform="translate(0,0)"/>
<path d="" fill="#FFFFFF" transform="translate(0,0)"/>
<path d="" fill="#FFFFFF" transform="translate(0,0)"/>
<path d="" fill="#FFFFFF" transform="translate(0,0)"/>
<path d="" fill="#000000" transform="translate(0,0)"/>
<path d="" fill="#FFFFFF" transform="translate(0,0)"/>
<path d="" fill="#FFFFFF" transform="translate(0,0)"/>
<path d="" fill="#FFFFFF" transform="translate(0,0)"/>
<path d="" fill="#FFFFFF" transform="translate(0,0)"/>
<path d="" fill="#000000" transform="translate(0,0)"/>
<path d="" fill="#FFFFFF" transform="translate(0,0)"/>
<path d="" fill="#FFFFFF" transform="translate(0,0)"/>
<path d="" fill="#FFFFFF" transform="translate(0,0)"/>
<path d="" fill="#FFFFFF" transform="translate(0,0)"/>
<path d="" fill="#FFFFFF" transform="translate(0,0)"/>
<path d="" fill="#FFFFFF" transform="translate(0,0)"/>
<path d="" fill="#FFFFFF" transform="translate(0,0)"/>
<path d="" fill="#FFFFFF" transform="translate(0,0)"/>
<path d="" fill="#FFFFFF" transform="translate(0,0)"/>
<path d="" fill="#FFFFFF" transform="translate(0,0)"/>
<path d="" fill="#FFFFFF" transform="translate(0,0)"/>
<path d="" fill="#FFFFFF" transform="translate(0,0)"/>
<path d="" fill="#FFFFFF" transform="translate(0,0)"/>
<path d="" fill="#FFFFFF" transform="translate(0,0)"/>
<path d="" fill="#FFFFFF" transform="translate(0,0)"/>
<path d="" fill="#FFFFFF" transform="translate(0,0)"/>
<path d="" fill="#FFFFFF" transform="translate(0,0)"/>
<path d="" fill="#FFFFFF" transform="translate(0,0)"/>
<path d="" fill="#FFFFFF" transform="translate(0,0)"/>
<path d="" fill="#FFFFFF" transform="translate(0,0)"/>
<path d="" fill="#FFFFFF" transform="translate(0,0)"/>
<path d="" fill="#FFFFFF" transform="translate(0,0)"/>
<path d="" fill="#FFFFFF" transform="translate(0,0)"/>
<path d="" fill="#FFFFFF" transform="translate(0,0)"/>
<path d="" fill="#FFFFFF" transform="translate(0,0)"/>
</svg>
